<svg xmlns="http://www.w3.org/2000/svg" width="24" height="24" viewBox="0 0 24 24">
    <g fill="none" fill-rule="evenodd" stroke="#000" stroke-linecap="round" stroke-linejoin="round" stroke-width="1.5">
        <path d="M1.875 1.5a.375.375 0 1 0 0 .75.375.375 0 0 0 0-.75M7.125 1.5a.375.375 0 1 0 0 .75.375.375 0 0 0 0-.75M12.375 1.5a.375.375 0 1 0 0 .75.375.375 0 0 0 0-.75M1.875 6.75a.375.375 0 1 0 0 .75.375.375 0 0 0 0-.75M7.125 6.75a.375.375 0 1 0 0 .75.375.375 0 0 0 0-.75M1.875 12a.375.375 0 1 0 0 .75.375.375 0 0 0 0-.75M7.125 12a.375.375 0 1 0 0 .75.375.375 0 0 0 0-.75"/>
        <path d="M6.75 22.5l-1.9-3.327A2.263 2.263 0 0 1 8.7 16.8l1.8 2.7V8.25a2.25 2.25 0 1 1 4.5 0v8.25h3.379a4.332 4.332 0 0 1 4.121 4.347V22.5"/>
    </g>
</svg>
