<svg xmlns="http://www.w3.org/2000/svg" xmlns:xlink="http://www.w3.org/1999/xlink" width="16" height="16" viewBox="0 0 16 16">
    <defs>
        <path id="a" d="M4.755 2.149v-.575C4.755.6 5.338 0 6.302 0h3.18c1.043 0 1.666.64 1.666 1.696v.453h3.857a.625.625 0 1 1 0 1.25h-.576l-.55 9.61-.017.112c-.45 1.854-1.445 2.878-2.94 2.878h-5.25c-1.85 0-3.069-1.003-3.524-2.878l-.017-.112-.55-9.61h-.576a.625.625 0 1 1 0-1.25h3.75zm1.25 0h3.893v-.453c0-.373-.071-.446-.417-.446H6.302c-.265 0-.297.033-.297.324v.575zm-3.172 1.25l.543 9.48c.328 1.288 1.051 1.87 2.296 1.87h5.25c.827 0 1.383-.561 1.712-1.869l.543-9.481H2.833zM5.75 5.484a.625.625 0 0 1 1.25 0v7.19a.625.625 0 1 1-1.25 0v-7.19zm3.25 0a.625.625 0 0 1 1.25 0v7.19a.625.625 0 1 1-1.25 0v-7.19z"/>
    </defs>
    <g fill="none" fill-rule="evenodd">
        <mask id="b" fill="#fff">
            <use xlink:href="#a"/>
        </mask>
        <use fill="#0073D0" fill-rule="nonzero" xlink:href="#a"/>
        <g fill="#BAC1C7" mask="url(#b)">
            <path d="M0 0h16v16H0z"/>
        </g>
    </g>
</svg>
